<?xml version="1.0" standalone="no"?>
<!DOCTYPE svg PUBLIC "-//W3C//DTD SVG 20010904//EN"
 "http://www.w3.org/TR/2001/REC-SVG-20010904/DTD/svg10.dtd">
<svg version="1.0" xmlns="http://www.w3.org/2000/svg"
 width="124.000000pt" height="134.000000pt" viewBox="0 0 124.000000 134.000000"
 preserveAspectRatio="xMidYMid meet">

<g transform="translate(0.000000,134.000000) scale(0.100000,-0.100000)"
fill="#000000" stroke="none">
<path d="M408 1325 c-127 -41 -300 -273 -362 -487 -51 -175 -52 -307 -5 -400
111 -220 345 -382 616 -428 99 -16 140 -7 220 49 206 145 311 320 301 500 -6
95 -33 158 -98 221 -95 93 -224 140 -386 140 -134 0 -151 -5 -176 -54 -46 -93
-114 -136 -185 -117 -79 22 -113 71 -113 164 0 94 58 144 180 154 85 7 169 -8
330 -60 147 -48 230 -54 295 -22 56 27 134 110 174 184 28 53 32 67 22 87 -13
30 -16 30 -87 -3 -49 -24 -72 -28 -139 -28 -67 1 -93 6 -158 33 -171 70 -337
96 -429 67z m558 -681 c95 -45 138 -149 95 -232 -68 -134 -280 -162 -497 -66
-82 36 -183 105 -233 159 -42 46 -79 110 -69 120 3 3 28 -7 56 -24 64 -38 173
-76 238 -85 l51 -6 30 49 c35 56 63 77 137 103 62 22 120 17 192 -18z"/>
</g>
</svg>
